# xmcd
#
# Track frame offsets:
#	150
#	10720
#	21648
#	33773
#	43235
#	54398
#	66908
#	77655
#	90385
#	102285
#	112625
#	124570
#	134270
#	145170
#	153985
#	164173
#	176873
#	187365
#	197630
#	208725
#	218090
#	227525
#	238918
#	248855
#
# Disc length: 3442 seconds
#
# Revision: 1
# Processed by: cddbd v1.5.1PL0 Copyright (c) Steve Scherf et al.
# Submitted via: EasyCDDAExtractor 7.0.9.1
#
DISCID=520d7018
DTITLE=Faron Young - This Is Faron Young - Hello Walls
DYEAR=1998
DGENRE=Country and Western
TTITLE0=Live Fast, Love Hard, Die Young
TTITLE1=Tattletale Tears
TTITLE2=Goin' Steady
TTITLE3=It's A Great Life (If You Don't Weaken)
TTITLE4=Just Married
TTITLE5=Sweet Dreams
TTITLE6=If You Ain't Lovin' (You Ain't Livin')
TTITLE7=Have I Waited Too Long
TTITLE8=For The Love Of A Woman Like You
TTITLE9=That's What It's Like To Be Lonesome
TTITLE10=If That's The Fasion
TTITLE11=I've Five Dollars And It's Saturday Night
TTITLE12=Hello Walls
TTITLE13=There's Not Any Like You Left
TTITLE14=Big Shoes
TTITLE15=Is She All You Thought She'd Be
TTITLE16=Anything Your Heart Desires
TTITLE17=Forget The Past
TTITLE18=Congratulations
TTITLE19=A World So Full Of Love
TTITLE20=I Made A Fool Of Myself
TTITLE21=Believing It Yourself
TTITLE22=Out Of My Heart
TTITLE23=Let Old Mother Nature Have Her Way
EXTD=
EXTT0=
EXTT1=
EXTT2=
EXTT3=
EXTT4=
EXTT5=
EXTT6=
EXTT7=
EXTT8=
EXTT9=
EXTT10=
EXTT11=
EXTT12=
EXTT13=
EXTT14=
EXTT15=
EXTT16=
EXTT17=
EXTT18=
EXTT19=
EXTT20=
EXTT21=
EXTT22=
EXTT23=
PLAYORDER=
